# xmcd CD database file
#
# Track frame offsets:
#	150
#	22649
#	39560
#	55495
#	86767
#	110251
#	125152
#	143656
#	170470
#	193230
#	211527
#	231365
#
# Disc length: 3268 seconds
#
# Revision: 0
# Processed by: cddbd v1.5.1PL0 Copyright (c) Steve Scherf et al.
# Submitted via: CDex 1.51
#
DISCID=a10cc20c
DTITLE=Manfred Leuchter - pas de trois
DYEAR=1900
DGENRE=Jazz
TTITLE0=alpha
TTITLE1=nemshi
TTITLE2=rajul
TTITLE3=dolgoschdannaja wstretscha
TTITLE4=pas de trois
TTITLE5=sidi afra
TTITLE6=kleines glück
TTITLE7=insomnia
TTITLE8=elle
TTITLE9=north of the border
TTITLE10=neyanana
TTITLE11=omega
EXTD=
EXTT0=
EXTT1=
EXTT2=
EXTT3=
EXTT4=
EXTT5=
EXTT6=
EXTT7=
EXTT8=
EXTT9=
EXTT10=
EXTT11=
PLAYORDER=
